<?xml version="1.0" encoding="UTF-8" standalone="no"?>
<svg width="390" height="844" viewBox="0 0 390 844" fill="none" xmlns="http://www.w3.org/2000/svg">
  <!-- 背景 -->
  <rect width="390" height="844" fill="#F7F9FC"/>
  
  <!-- 状态栏 -->
  <rect width="390" height="44" fill="#1E63A8"/>
  <text x="195" y="27" font-family="PingFang SC, Noto Sans SC, sans-serif" font-size="16" fill="#FFFFFF" text-anchor="middle" font-weight="bold">冷链温度监控</text>
  
  <!-- 用户信息栏 -->
  <rect x="0" y="44" width="390" height="60" fill="#FFFFFF"/>
  <text x="20" y="80" font-family="PingFang SC, Noto Sans SC, sans-serif" font-size="18" fill="#1E63A8" font-weight="bold">温控中心</text>
  
  <!-- 标签切换 -->
  <rect x="266" y="62" width="104" height="28" rx="14" fill="#EBF0FF" stroke="#CBD5E1" stroke-width="1"/>
  <rect x="267" y="63" width="51" height="26" rx="13" fill="#1E63A8"/>
  <text x="292" y="80" font-family="PingFang SC, Noto Sans SC, sans-serif" font-size="12" fill="#FFFFFF" text-anchor="middle" font-weight="bold">实时</text>
  <text x="343" y="80" font-family="PingFang SC, Noto Sans SC, sans-serif" font-size="12" fill="#64748B" text-anchor="middle">历史</text>
  
  <!-- 温度异常警报卡片 -->
  <rect x="20" y="114" width="350" height="90" rx="16" fill="#FFEFEF" stroke="#FECACA" stroke-width="1" filter="drop-shadow(0px 1px 2px rgba(0, 0, 0, 0.05))"/>
  <circle cx="45" cy="139" r="15" fill="#EF4444"/>
  <text x="45" y="143" font-family="PingFang SC, Noto Sans SC, sans-serif" font-size="14" fill="#FFFFFF" text-anchor="middle" font-weight="bold">!</text>
  
  <text x="70" y="139" font-family="PingFang SC, Noto Sans SC, sans-serif" font-size="16" fill="#B91C1C" font-weight="bold">温度异常警报</text>
  <text x="70" y="159" font-family="PingFang SC, Noto Sans SC, sans-serif" font-size="12" fill="#B91C1C">车辆: 粤B-65432 | 时间: 10:45</text>
  <text x="70" y="179" font-family="PingFang SC, Noto Sans SC, sans-serif" font-size="12" fill="#B91C1C">当前温度: -2.8°C (目标温度: -18°C)</text>
  
  <rect x="280" y="139" width="70" height="30" rx="6" fill="#EF4444"/>
  <text x="315" y="159" font-family="PingFang SC, Noto Sans SC, sans-serif" font-size="12" fill="#FFFFFF" text-anchor="middle" font-weight="bold">立即处理</text>
  
  <!-- 温度概览 -->
  <rect x="20" y="214" width="350" height="110" rx="16" fill="#FFFFFF" stroke="#CBD5E1" stroke-width="1" filter="drop-shadow(0px 1px 2px rgba(0, 0, 0, 0.05))"/>
  <text x="40" y="239" font-family="PingFang SC, Noto Sans SC, sans-serif" font-size="16" fill="#0F172A" font-weight="bold">温度状态概览</text>
  
  <!-- 温度卡片 - 正常 -->
  <rect x="40" y="249" width="96" height="60" rx="8" fill="#F0FDF4"/>
  <text x="88" y="269" font-family="PingFang SC, Noto Sans SC, sans-serif" font-size="12" fill="#166534" text-anchor="middle">正常车辆</text>
  <text x="88" y="294" font-family="PingFang SC, Noto Sans SC, sans-serif" font-size="18" fill="#166534" font-weight="bold" text-anchor="middle">12</text>
  
  <!-- 温度卡片 - 警告 -->
  <rect x="146" y="249" width="96" height="60" rx="8" fill="#FFFBEB"/>
  <text x="194" y="269" font-family="PingFang SC, Noto Sans SC, sans-serif" font-size="12" fill="#92400E" text-anchor="middle">温度波动</text>
  <text x="194" y="294" font-family="PingFang SC, Noto Sans SC, sans-serif" font-size="18" fill="#92400E" font-weight="bold" text-anchor="middle">3</text>
  
  <!-- 温度卡片 - 异常 -->
  <rect x="252" y="249" width="96" height="60" rx="8" fill="#FEF2F2"/>
  <text x="300" y="269" font-family="PingFang SC, Noto Sans SC, sans-serif" font-size="12" fill="#B91C1C" text-anchor="middle">严重异常</text>
  <text x="300" y="294" font-family="PingFang SC, Noto Sans SC, sans-serif" font-size="18" fill="#B91C1C" font-weight="bold" text-anchor="middle">1</text>
  
  <!-- 温度曲线图 -->
  <rect x="20" y="334" width="350" height="220" rx="16" fill="#FFFFFF" stroke="#CBD5E1" stroke-width="1" filter="drop-shadow(0px 1px 2px rgba(0, 0, 0, 0.05))"/>
  <text x="40" y="359" font-family="PingFang SC, Noto Sans SC, sans-serif" font-size="16" fill="#0F172A" font-weight="bold">温度趋势曲线</text>
  
  <!-- 图表区域 -->
  <rect x="40" y="369" width="310" height="170" rx="8" fill="#F8FAFC"/>
  
  <!-- X轴和Y轴 -->
  <line x1="60" y1="509" x2="330" y2="509" stroke="#CBD5E1" stroke-width="1"/>
  <line x1="60" y1="389" x2="60" y2="509" stroke="#CBD5E1" stroke-width="1"/>
  
  <!-- X轴标签 -->
  <text x="60" y="524" font-family="PingFang SC, Noto Sans SC, sans-serif" font-size="10" fill="#64748B" text-anchor="middle">8:00</text>
  <text x="135" y="524" font-family="PingFang SC, Noto Sans SC, sans-serif" font-size="10" fill="#64748B" text-anchor="middle">9:00</text>
  <text x="210" y="524" font-family="PingFang SC, Noto Sans SC, sans-serif" font-size="10" fill="#64748B" text-anchor="middle">10:00</text>
  <text x="285" y="524" font-family="PingFang SC, Noto Sans SC, sans-serif" font-size="10" fill="#64748B" text-anchor="middle">11:00</text>
  
  <!-- Y轴标签 (温度) -->
  <text x="50" y="389" font-family="PingFang SC, Noto Sans SC, sans-serif" font-size="10" fill="#64748B" text-anchor="end">-20°C</text>
  <text x="50" y="429" font-family="PingFang SC, Noto Sans SC, sans-serif" font-size="10" fill="#64748B" text-anchor="end">-15°C</text>
  <text x="50" y="469" font-family="PingFang SC, Noto Sans SC, sans-serif" font-size="10" fill="#64748B" text-anchor="end">-10°C</text>
  <text x="50" y="509" font-family="PingFang SC, Noto Sans SC, sans-serif" font-size="10" fill="#64748B" text-anchor="end">-5°C</text>
  
  <!-- 目标温度区间 -->
  <rect x="60" y="389" width="270" height="20" fill="#DCFCE7" fill-opacity="0.5"/>
  <text x="90" y="404" font-family="PingFang SC, Noto Sans SC, sans-serif" font-size="10" fill="#166534">目标温度区间 (-20°C ~ -18°C)</text>
  
  <!-- 温度曲线 -->
  <path d="M60 389 L85 390 L110 392 L135 399 L160 405 L185 430 L210 460 L235 470 L260 475 L285 480 L310 472" stroke="#0EA5E9" stroke-width="2" fill="none"/>
  
  <!-- 异常点 -->
  <circle cx="210" cy="460" r="6" fill="#EF4444" stroke="#FFFFFF" stroke-width="1"/>
  
  <!-- 车辆列表标题 -->
  <text x="20" y="574" font-family="PingFang SC, Noto Sans SC, sans-serif" font-size="16" fill="#0F172A" font-weight="bold">冷藏车监控</text>
  
  <!-- 车辆1 - 异常 -->
  <rect x="20" y="584" width="350" height="80" rx="12" fill="#FFFFFF" stroke="#FECACA" stroke-width="1" filter="drop-shadow(0px 1px 2px rgba(0, 0, 0, 0.05))"/>
  <rect x="20" y="584" width="6" height="80" rx="3" fill="#EF4444"/>
  
  <text x="40" y="604" font-family="PingFang SC, Noto Sans SC, sans-serif" font-size="14" fill="#0F172A" font-weight="bold">冷藏车 | 粤B-65432</text>
  <rect x="180" y="590" width="70" height="22" rx="4" fill="#FEF2F2"/>
  <text x="215" y="605" font-family="PingFang SC, Noto Sans SC, sans-serif" font-size="10" fill="#B91C1C" text-anchor="middle">温度异常</text>
  <rect x="260" y="590" width="90" height="22" rx="4" fill="#F1F5F9"/>
  <text x="305" y="605" font-family="PingFang SC, Noto Sans SC, sans-serif" font-size="10" fill="#475569" text-anchor="middle">冰鲜食品</text>
  
  <text x="40" y="627" font-family="PingFang SC, Noto Sans SC, sans-serif" font-size="12" fill="#64748B">当前温度: -2.8°C | 目标: -18°C</text>
  <text x="40" y="647" font-family="PingFang SC, Noto Sans SC, sans-serif" font-size="12" fill="#64748B">司机: 王师傅 | 电话: 135****2468</text>
  
  <!-- 车辆2 - 警告 -->
  <rect x="20" y="674" width="350" height="80" rx="12" fill="#FFFFFF" stroke="#FED7AA" stroke-width="1" filter="drop-shadow(0px 1px 2px rgba(0, 0, 0, 0.05))"/>
  <rect x="20" y="674" width="6" height="80" rx="3" fill="#F59E0B"/>
  
  <text x="40" y="694" font-family="PingFang SC, Noto Sans SC, sans-serif" font-size="14" fill="#0F172A" font-weight="bold">冷藏车 | 粤B-78901</text>
  <rect x="180" y="680" width="70" height="22" rx="4" fill="#FFFBEB"/>
  <text x="215" y="695" font-family="PingFang SC, Noto Sans SC, sans-serif" font-size="10" fill="#92400E" text-anchor="middle">温度波动</text>
  <rect x="260" y="680" width="90" height="22" rx="4" fill="#F1F5F9"/>
  <text x="305" y="695" font-family="PingFang SC, Noto Sans SC, sans-serif" font-size="10" fill="#475569" text-anchor="middle">乳制品</text>
  
  <text x="40" y="717" font-family="PingFang SC, Noto Sans SC, sans-serif" font-size="12" fill="#64748B">当前温度: -3.5°C | 目标: -4°C</text>
  <text x="40" y="737" font-family="PingFang SC, Noto Sans SC, sans-serif" font-size="12" fill="#64748B">司机: 李师傅 | 电话: 139****5678</text>
  
  <!-- 底部导航栏 -->
  <rect x="0" y="784" width="390" height="60" fill="#FFFFFF" stroke="#E2E8F0" stroke-width="1"/>
  
  <!-- 首页图标 -->
  <circle cx="50" cy="809" r="22" fill="#F1F5F9"/>
  <path d="M50 799 L38 809 L38 824 L62 824 L62 809 Z" stroke="#64748B" stroke-width="2" fill="none"/>
  <text x="50" y="834" font-family="PingFang SC, Noto Sans SC, sans-serif" font-size="10" fill="#64748B" text-anchor="middle">首页</text>
  
  <!-- 订单图标 -->
  <circle cx="130" cy="809" r="22" fill="#F1F5F9"/>
  <rect x="118" y="799" width="24" height="20" stroke="#64748B" stroke-width="2" fill="none" rx="2"/>
  <line x1="118" y1="805" x2="142" y2="805" stroke="#64748B" stroke-width="2"/>
  <text x="130" y="834" font-family="PingFang SC, Noto Sans SC, sans-serif" font-size="10" fill="#64748B" text-anchor="middle">订单</text>
  
  <!-- 车辆图标 -->
  <circle cx="210" cy="809" r="22" fill="#F1F5F9"/>
  <path d="M200 802 L220 802 L223 809 L197 809 Z" stroke="#64748B" stroke-width="2" fill="none"/>
  <circle cx="202" cy="816" r="4" stroke="#64748B" stroke-width="2" fill="none"/>
  <circle cx="218" cy="816" r="4" stroke="#64748B" stroke-width="2" fill="none"/>
  <text x="210" y="834" font-family="PingFang SC, Noto Sans SC, sans-serif" font-size="10" fill="#64748B" text-anchor="middle">车辆</text>
  
  <!-- 温控图标（激活状态） -->
  <circle cx="290" cy="809" r="24" fill="#1E63A8"/>
  <text x="290" y="809" font-family="PingFang SC, Noto Sans SC, sans-serif" font-size="20" fill="#FFFFFF" text-anchor="middle">❄</text>
  <text x="290" y="834" font-family="PingFang SC, Noto Sans SC, sans-serif" font-size="10" fill="#1E63A8" text-anchor="middle" font-weight="bold">温控</text>
  
  <!-- 我的图标 -->
  <circle cx="350" cy="809" r="22" fill="#F1F5F9"/>
  <circle cx="350" cy="804" r="8" stroke="#64748B" stroke-width="2" fill="none"/>
  <path d="M338 824 C338 816 362 816 362 824" stroke="#64748B" stroke-width="2" fill="none"/>
  <text x="350" y="834" font-family="PingFang SC, Noto Sans SC, sans-serif" font-size="10" fill="#64748B" text-anchor="middle">我的</text>
</svg>