<?xml version="1.0" encoding="UTF-8" standalone="no"?>
<svg width="390" height="844" viewBox="0 0 390 844" fill="none" xmlns="http://www.w3.org/2000/svg">
  <!-- 背景 -->
  <rect width="390" height="844" fill="#F5F7FA"/>
  
  <!-- 状态栏 -->
  <rect width="390" height="44" fill="#2D5F9E"/>
  <text x="195" y="27" font-family="Arial" font-size="16" fill="#FFFFFF" text-anchor="middle" font-weight="bold">客户管理</text>
  
  <!-- 搜索栏 -->
  <rect x="20" y="54" width="300" height="40" rx="20" fill="#FFFFFF" stroke="#E6EAF0" stroke-width="1"/>
  <circle cx="40" cy="74" r="10" fill="#F5F7FA"/>
  <text x="75" y="79" font-family="Arial" font-size="14" fill="#A0AEC0">搜索客户名称、联系人...</text>
  
  <!-- 添加客户按钮 -->
  <rect x="330" y="54" width="40" height="40" rx="20" fill="#2D5F9E"/>
  <text x="350" y="78" font-family="Arial" font-size="20" fill="#FFFFFF" font-weight="bold" text-anchor="middle">+</text>
  
  <!-- 分类标签栏 -->
  <rect x="0" y="104" width="390" height="50" fill="#FFFFFF"/>
  
  <rect x="20" y="114" width="60" height="30" rx="15" fill="#2D5F9E"/>
  <text x="50" y="134" font-family="Arial" font-size="12" fill="#FFFFFF" text-anchor="middle">全部</text>
  
  <rect x="90" y="114" width="60" height="30" rx="15" fill="#F5F7FA"/>
  <text x="120" y="134" font-family="Arial" font-size="12" fill="#718096" text-anchor="middle">经销商</text>
  
  <rect x="160" y="114" width="60" height="30" rx="15" fill="#F5F7FA"/>
  <text x="190" y="134" font-family="Arial" font-size="12" fill="#718096" text-anchor="middle">零售商</text>
  
  <rect x="230" y="114" width="60" height="30" rx="15" fill="#F5F7FA"/>
  <text x="260" y="134" font-family="Arial" font-size="12" fill="#718096" text-anchor="middle">批发商</text>
  
  <rect x="300" y="114" width="70" height="30" rx="15" fill="#F5F7FA"/>
  <text x="335" y="134" font-family="Arial" font-size="12" fill="#718096" text-anchor="middle">其他</text>
  
  <!-- 排序筛选栏 -->
  <rect x="0" y="164" width="390" height="40" fill="#FFFFFF"/>
  
  <text x="40" y="189" font-family="Arial" font-size="12" fill="#2D5F9E">最近交易</text>
  <text x="120" y="189" font-family="Arial" font-size="12" fill="#718096">交易额</text>
  <text x="180" y="189" font-family="Arial" font-size="12" fill="#718096">合作时间</text>
  
  <rect x="290" y="169" width="80" height="30" rx="4" fill="#F5F7FA"/>
  <text x="330" y="189" font-family="Arial" font-size="12" fill="#2D5F9E" text-anchor="middle">更多筛选</text>
  
  <!-- 客户统计卡片 -->
  <rect x="20" y="214" width="350" height="80" rx="8" fill="#FFFFFF" stroke="#E6EAF0" stroke-width="1"/>
  
  <text x="60" y="244" font-family="Arial" font-size="14" fill="#718096" text-anchor="middle">总客户数</text>
  <text x="60" y="274" font-family="Arial" font-size="18" fill="#2D3748" font-weight="bold" text-anchor="middle">256</text>
  
  <text x="175" y="244" font-family="Arial" font-size="14" fill="#718096" text-anchor="middle">本月新增</text>
  <text x="175" y="274" font-family="Arial" font-size="18" fill="#2D3748" font-weight="bold" text-anchor="middle">12</text>
  
  <text x="290" y="244" font-family="Arial" font-size="14" fill="#718096" text-anchor="middle">活跃客户</text>
  <text x="290" y="274" font-family="Arial" font-size="18" fill="#2D3748" font-weight="bold" text-anchor="middle">187</text>
  
  <!-- 客户列表 -->
  <!-- 客户1 -->
  <rect x="20" y="304" width="350" height="120" rx="8" fill="#FFFFFF" stroke="#E6EAF0" stroke-width="1"/>
  <circle cx="60" cy="344" r="30" fill="#2D5F9E"/>
  <text x="60" y="352" font-family="Arial" font-size="20" fill="#FFFFFF" text-anchor="middle">广</text>
  
  <text x="100" y="324" font-family="Arial" font-size="14" fill="#2D3748" font-weight="bold">广州众诚贸易有限公司</text>
  <rect x="310" y="319" width="40" height="20" rx="4" fill="#BEE3F8"/>
  <text x="330" y="333" font-family="Arial" font-size="10" fill="#2B6CB0" text-anchor="middle">经销商</text>
  
  <text x="100" y="344" font-family="Arial" font-size="12" fill="#718096">联系人：张经理 | 13812345678</text>
  <text x="100" y="364" font-family="Arial" font-size="12" fill="#718096">所在地：广东省广州市白云区</text>
  <text x="100" y="384" font-family="Arial" font-size="12" fill="#718096">最近订单：2025-06-15 | 共45单</text>
  <text x="100" y="404" font-family="Arial" font-size="12" fill="#2D5F9E">查看详情</text>
  
  <!-- 客户2 -->
  <rect x="20" y="434" width="350" height="120" rx="8" fill="#FFFFFF" stroke="#E6EAF0" stroke-width="1"/>
  <circle cx="60" cy="474" r="30" fill="#4A5568"/>
  <text x="60" y="482" font-family="Arial" font-size="20" fill="#FFFFFF" text-anchor="middle">深</text>
  
  <text x="100" y="454" font-family="Arial" font-size="14" fill="#2D3748" font-weight="bold">深圳市民生超市连锁有限公司</text>
  <rect x="310" y="449" width="40" height="20" rx="4" fill="#C6F6D5"/>
  <text x="330" y="463" font-family="Arial" font-size="10" fill="#2F855A" text-anchor="middle">零售商</text>
  
  <text x="100" y="474" font-family="Arial" font-size="12" fill="#718096">联系人：王总 | 13987654321</text>
  <text x="100" y="494" font-family="Arial" font-size="12" fill="#718096">所在地：广东省深圳市福田区</text>
  <text x="100" y="514" font-family="Arial" font-size="12" fill="#718096">最近订单：2025-06-14 | 共32单</text>
  <text x="100" y="534" font-family="Arial" font-size="12" fill="#2D5F9E">查看详情</text>
  
  <!-- 客户3 -->
  <rect x="20" y="564" width="350" height="120" rx="8" fill="#FFFFFF" stroke="#E6EAF0" stroke-width="1"/>
  <circle cx="60" cy="604" r="30" fill="#DD6B20"/>
  <text x="60" y="612" font-family="Arial" font-size="20" fill="#FFFFFF" text-anchor="middle">东</text>
  
  <text x="100" y="584" font-family="Arial" font-size="14" fill="#2D3748" font-weight="bold">东莞市好又多商贸有限公司</text>
  <rect x="310" y="579" width="40" height="20" rx="4" fill="#FED7D7"/>
  <text x="330" y="593" font-family="Arial" font-size="10" fill="#9B2C2C" text-anchor="middle">批发商</text>
  
  <text x="100" y="604" font-family="Arial" font-size="12" fill="#718096">联系人：李经理 | 13567891234</text>
  <text x="100" y="624" font-family="Arial" font-size="12" fill="#718096">所在地：广东省东莞市南城区</text>
  <text x="100" y="644" font-family="Arial" font-size="12" fill="#718096">最近订单：2025-06-13 | 共28单</text>
  <text x="100" y="664" font-family="Arial" font-size="12" fill="#2D5F9E">查看详情</text>
  
  <!-- 客户4 -->
  <rect x="20" y="694" width="350" height="80" rx="8" fill="#F7FAFC" stroke="#E6EAF0" stroke-width="1"/>
  <circle cx="60" cy="734" r="30" fill="#805AD5"/>
  <text x="60" y="742" font-family="Arial" font-size="20" fill="#FFFFFF" text-anchor="middle">佛</text>
  
  <text x="100" y="724" font-family="Arial" font-size="14" fill="#718096">佛山市顺德区乐购超市</text>
  <rect x="310" y="719" width="40" height="20" rx="4" fill="#E9D8FD"/>
  <text x="330" y="733" font-family="Arial" font-size="10" fill="#553C9A" text-anchor="middle">零售商</text>
  
  <text x="100" y="744" font-family="Arial" font-size="12" fill="#718096">联系人：陈经理 | 2025-06-12 | 共25单</text>
  
  <!-- 导航栏 -->
  <rect x="0" y="780" width="390" height="64" fill="#FFFFFF" stroke="#E6EAF0" stroke-width="1"/>
  
  <!-- 首页 -->
  <circle cx="65" cy="812" r="24" fill="#F5F7FA"/>
  <text x="65" y="816" font-family="Arial" font-size="10" fill="#718096" text-anchor="middle">首页</text>
  
  <!-- 订单 -->
  <circle cx="142" cy="812" r="24" fill="#F5F7FA"/>
  <text x="142" y="816" font-family="Arial" font-size="10" fill="#718096" text-anchor="middle">订单</text>
  
  <!-- 产品 -->
  <circle cx="219" cy="812" r="24" fill="#F5F7FA"/>
  <text x="219" y="816" font-family="Arial" font-size="10" fill="#718096" text-anchor="middle">产品</text>
  
  <!-- 客户 -->
  <circle cx="296" cy="812" r="24" fill="#EBF8FF"/>
  <text x="296" y="816" font-family="Arial" font-size="10" fill="#2D5F9E" text-anchor="middle">客户</text>
  
  <!-- 我的 -->
  <circle cx="373" cy="812" r="24" fill="#F5F7FA"/>
  <text x="373" y="816" font-family="Arial" font-size="10" fill="#718096" text-anchor="middle">我的</text>
</svg>