<?xml version="1.0" encoding="UTF-8" standalone="no"?>
<svg width="390" height="844" viewBox="0 0 390 844" fill="none" xmlns="http://www.w3.org/2000/svg">
  <!-- 背景 -->
  <rect width="390" height="844" fill="#F5F7FA"/>
  
  <!-- 状态栏 -->
  <rect width="390" height="44" fill="#2D5F9E"/>
  <text x="195" y="27" font-family="Arial" font-size="16" fill="#FFFFFF" text-anchor="middle" font-weight="bold">产品目录</text>
  
  <!-- 搜索栏 -->
  <rect x="20" y="54" width="350" height="40" rx="20" fill="#FFFFFF" stroke="#E6EAF0" stroke-width="1"/>
  <circle cx="40" cy="74" r="10" fill="#F5F7FA"/>
  <text x="75" y="79" font-family="Arial" font-size="14" fill="#A0AEC0">搜索产品名称、编号、条码...</text>
  
  <!-- 分类标签栏 -->
  <rect x="0" y="104" width="390" height="50" fill="#FFFFFF"/>
  
  <rect x="20" y="114" width="80" height="30" rx="15" fill="#2D5F9E"/>
  <text x="60" y="134" font-family="Arial" font-size="12" fill="#FFFFFF" text-anchor="middle">全部</text>
  
  <rect x="110" y="114" width="80" height="30" rx="15" fill="#F5F7FA"/>
  <text x="150" y="134" font-family="Arial" font-size="12" fill="#718096" text-anchor="middle">饮料</text>
  
  <rect x="200" y="114" width="80" height="30" rx="15" fill="#F5F7FA"/>
  <text x="240" y="134" font-family="Arial" font-size="12" fill="#718096" text-anchor="middle">零食</text>
  
  <rect x="290" y="114" width="80" height="30" rx="15" fill="#F5F7FA"/>
  <text x="330" y="134" font-family="Arial" font-size="12" fill="#718096" text-anchor="middle">其他</text>
  
  <!-- 筛选排序栏 -->
  <rect x="0" y="164" width="390" height="40" fill="#FFFFFF"/>
  
  <text x="40" y="189" font-family="Arial" font-size="12" fill="#718096">销量排序</text>
  <text x="130" y="189" font-family="Arial" font-size="12" fill="#718096">价格排序</text>
  <text x="220" y="189" font-family="Arial" font-size="12" fill="#718096">上架时间</text>
  
  <rect x="290" y="169" width="80" height="30" rx="4" fill="#F5F7FA"/>
  <text x="330" y="189" font-family="Arial" font-size="12" fill="#2D5F9E" text-anchor="middle">筛选</text>
  
  <!-- 产品列表 -->
  <!-- 产品1 -->
  <rect x="20" y="214" width="350" height="120" rx="8" fill="#FFFFFF" stroke="#E6EAF0" stroke-width="1"/>
  <rect x="40" y="234" width="80" height="80" rx="4" fill="#F0F4F8"/>
  <text x="80" y="274" font-family="Arial" font-size="10" fill="#718096" text-anchor="middle">产品图片</text>
  
  <text x="140" y="249" font-family="Arial" font-size="14" fill="#2D3748" font-weight="bold">椰子水饮料 500ml</text>
  <text x="140" y="269" font-family="Arial" font-size="12" fill="#718096">规格：500ml*24瓶/箱</text>
  <text x="140" y="289" font-family="Arial" font-size="12" fill="#718096">编号：SP20250601</text>
  
  <text x="140" y="309" font-family="Arial" font-size="14" fill="#E53E3E" font-weight="bold">¥120.00/箱</text>
  <rect x="320" y="289" width="30" height="24" rx="4" fill="#2D5F9E"/>
  <text x="335" y="306" font-family="Arial" font-size="14" fill="#FFFFFF" text-anchor="middle">+</text>
  
  <!-- 产品2 -->
  <rect x="20" y="344" width="350" height="120" rx="8" fill="#FFFFFF" stroke="#E6EAF0" stroke-width="1"/>
  <rect x="40" y="364" width="80" height="80" rx="4" fill="#F0F4F8"/>
  <text x="80" y="404" font-family="Arial" font-size="10" fill="#718096" text-anchor="middle">产品图片</text>
  
  <text x="140" y="379" font-family="Arial" font-size="14" fill="#2D3748" font-weight="bold">果汁饮料 330ml</text>
  <text x="140" y="399" font-family="Arial" font-size="12" fill="#718096">规格：330ml*24瓶/箱</text>
  <text x="140" y="419" font-family="Arial" font-size="12" fill="#718096">编号：SP20250602</text>
  
  <text x="140" y="439" font-family="Arial" font-size="14" fill="#E53E3E" font-weight="bold">¥96.00/箱</text>
  <rect x="320" y="419" width="30" height="24" rx="4" fill="#2D5F9E"/>
  <text x="335" y="436" font-family="Arial" font-size="14" fill="#FFFFFF" text-anchor="middle">+</text>
  
  <!-- 产品3 -->
  <rect x="20" y="474" width="350" height="120" rx="8" fill="#FFFFFF" stroke="#E6EAF0" stroke-width="1"/>
  <rect x="40" y="494" width="80" height="80" rx="4" fill="#F0F4F8"/>
  <text x="80" y="534" font-family="Arial" font-size="10" fill="#718096" text-anchor="middle">产品图片</text>
  
  <text x="140" y="509" font-family="Arial" font-size="14" fill="#2D3748" font-weight="bold">矿泉水 550ml</text>
  <text x="140" y="529" font-family="Arial" font-size="12" fill="#718096">规格：550ml*24瓶/箱</text>
  <text x="140" y="549" font-family="Arial" font-size="12" fill="#718096">编号：SP20250603</text>
  
  <text x="140" y="569" font-family="Arial" font-size="14" fill="#E53E3E" font-weight="bold">¥48.00/箱</text>
  <rect x="320" y="549" width="30" height="24" rx="4" fill="#2D5F9E"/>
  <text x="335" y="566" font-family="Arial" font-size="14" fill="#FFFFFF" text-anchor="middle">+</text>
  
  <!-- 促销产品标签 -->
  <rect x="20" y="604" width="350" height="40" rx="8" fill="#FFF5F5"/>
  <text x="195" y="629" font-family="Arial" font-size="14" fill="#E53E3E" text-anchor="middle">🔥 夏季促销产品 - 点击查看全部促销</text>
  
  <!-- 产品4 (促销) -->
  <rect x="20" y="654" width="350" height="120" rx="8" fill="#FFFFFF" stroke="#FED7D7" stroke-width="1"/>
  <rect x="40" y="674" width="80" height="80" rx="4" fill="#F0F4F8"/>
  <text x="80" y="714" font-family="Arial" font-size="10" fill="#718096" text-anchor="middle">产品图片</text>
  
  <text x="140" y="689" font-family="Arial" font-size="14" fill="#2D3748" font-weight="bold">能量饮料 250ml</text>
  <text x="140" y="709" font-family="Arial" font-size="12" fill="#718096">规格：250ml*24瓶/箱</text>
  <text x="140" y="729" font-family="Arial" font-size="12" fill="#718096">编号：SP20250604</text>
  
  <text x="140" y="749" font-family="Arial" font-size="12" fill="#A0AEC0" text-decoration="line-through">¥144.00/箱</text>
  <text x="220" y="749" font-family="Arial" font-size="14" fill="#E53E3E" font-weight="bold">¥120.00/箱</text>
  <rect x="320" y="729" width="30" height="24" rx="4" fill="#E53E3E"/>
  <text x="335" y="746" font-family="Arial" font-size="14" fill="#FFFFFF" text-anchor="middle">+</text>
  
  <!-- 导航栏 -->
  <rect x="0" y="780" width="390" height="64" fill="#FFFFFF" stroke="#E6EAF0" stroke-width="1"/>
  
  <!-- 首页 -->
  <circle cx="65" cy="812" r="24" fill="#F5F7FA"/>
  <text x="65" y="816" font-family="Arial" font-size="10" fill="#718096" text-anchor="middle">首页</text>
  
  <!-- 订单 -->
  <circle cx="142" cy="812" r="24" fill="#F5F7FA"/>
  <text x="142" y="816" font-family="Arial" font-size="10" fill="#718096" text-anchor="middle">订单</text>
  
  <!-- 产品 -->
  <circle cx="219" cy="812" r="24" fill="#EBF8FF"/>
  <text x="219" y="816" font-family="Arial" font-size="10" fill="#2D5F9E" text-anchor="middle">产品</text>
  
  <!-- 客户 -->
  <circle cx="296" cy="812" r="24" fill="#F5F7FA"/>
  <text x="296" y="816" font-family="Arial" font-size="10" fill="#718096" text-anchor="middle">客户</text>
  
  <!-- 我的 -->
  <circle cx="373" cy="812" r="24" fill="#F5F7FA"/>
  <text x="373" y="816" font-family="Arial" font-size="10" fill="#718096" text-anchor="middle">我的</text>
</svg>