<?xml version="1.0" encoding="UTF-8" standalone="no"?>
<svg width="390" height="844" viewBox="0 0 390 844" fill="none" xmlns="http://www.w3.org/2000/svg">
  <!-- 背景 -->
  <rect width="390" height="844" fill="#F7F9FC"/>
  
  <!-- 状态栏 -->
  <rect width="390" height="44" fill="#1E3A8A"/>
  <text x="195" y="27" font-family="PingFang SC, Noto Sans SC, sans-serif" font-size="16" fill="#FFFFFF" text-anchor="middle" font-weight="bold">整车智能调度系统</text>
  
  <!-- 用户信息栏 -->
  <rect x="0" y="44" width="390" height="60" fill="#FFFFFF"/>
  <text x="20" y="80" font-family="PingFang SC, Noto Sans SC, sans-serif" font-size="18" fill="#1E3A8A" font-weight="bold">配送调度中心</text>
  
  <!-- 标签切换 -->
  <rect x="266" y="62" width="104" height="28" rx="14" fill="#EBF0FF" stroke="#CBD5E1" stroke-width="1"/>
  <rect x="267" y="63" width="51" height="26" rx="13" fill="#1E3A8A"/>
  <text x="292" y="80" font-family="PingFang SC, Noto Sans SC, sans-serif" font-size="12" fill="#FFFFFF" text-anchor="middle" font-weight="bold">全部</text>
  <text x="343" y="80" font-family="PingFang SC, Noto Sans SC, sans-serif" font-size="12" fill="#64748B" text-anchor="middle">今日</text>
  
  <!-- AI推荐调度卡片 -->
  <rect x="20" y="114" width="350" height="110" rx="16" fill="#FFFFFF" stroke="#CBD5E1" stroke-width="1" filter="drop-shadow(0px 1px 2px rgba(0, 0, 0, 0.05))"/>
  <text x="40" y="139" font-family="PingFang SC, Noto Sans SC, sans-serif" font-size="16" fill="#0F172A" font-weight="bold">AI智能推荐</text>
  
  <!-- AI推荐内容 -->
  <rect x="40" y="149" width="310" height="60" rx="8" fill="#F0F9FF"/>
  <text x="55" y="169" font-family="PingFang SC, Noto Sans SC, sans-serif" font-size="12" fill="#0C4A6E">根据当前订单和车辆状态，建议您:</text>
  <text x="55" y="189" font-family="PingFang SC, Noto Sans SC, sans-serif" font-size="14" fill="#0C4A6E" font-weight="bold">为DD202405150023和DD202405140048分配自备车，提高成本效益</text>
  <rect x="290" y="159" width="45" height="40" rx="8" fill="#0284C7"/>
  <text x="313" y="182" font-family="PingFang SC, Noto Sans SC, sans-serif" font-size="12" fill="#FFFFFF" text-anchor="middle" font-weight="bold">接受</text>
  
  <!-- 车辆资源状态 -->
  <rect x="20" y="234" width="350" height="130" rx="16" fill="#FFFFFF" stroke="#CBD5E1" stroke-width="1" filter="drop-shadow(0px 1px 2px rgba(0, 0, 0, 0.05))"/>
  <text x="40" y="259" font-family="PingFang SC, Noto Sans SC, sans-serif" font-size="16" fill="#0F172A" font-weight="bold">车辆资源</text>
  
  <!-- 车辆类型1 - 自备车 -->
  <rect x="40" y="269" width="100" height="80" rx="8" fill="#F0FDF4"/>
  <text x="90" y="294" font-family="PingFang SC, Noto Sans SC, sans-serif" font-size="12" fill="#166534" text-anchor="middle">自备车</text>
  <text x="90" y="319" font-family="PingFang SC, Noto Sans SC, sans-serif" font-size="18" fill="#166534" font-weight="bold" text-anchor="middle">8/10</text>
  <rect x="40" y="333" width="100" height="6" rx="3" fill="#E5E7EB"/>
  <rect x="40" y="333" width="80" height="6" rx="3" fill="#22C55E"/>
  
  <!-- 车辆类型2 - 长租车 -->
  <rect x="150" y="269" width="100" height="80" rx="8" fill="#EFF6FF"/>
  <text x="200" y="294" font-family="PingFang SC, Noto Sans SC, sans-serif" font-size="12" fill="#1E40AF" text-anchor="middle">长租车</text>
  <text x="200" y="319" font-family="PingFang SC, Noto Sans SC, sans-serif" font-size="18" fill="#1E40AF" font-weight="bold" text-anchor="middle">6/8</text>
  <rect x="150" y="333" width="100" height="6" rx="3" fill="#E5E7EB"/>
  <rect x="150" y="333" width="75" height="6" rx="3" fill="#3B82F6"/>
  
  <!-- 车辆类型3 - 短租车 -->
  <rect x="260" y="269" width="100" height="80" rx="8" fill="#FEF2F2"/>
  <text x="310" y="294" font-family="PingFang SC, Noto Sans SC, sans-serif" font-size="12" fill="#B91C1C" text-anchor="middle">短租车</text>
  <text x="310" y="319" font-family="PingFang SC, Noto Sans SC, sans-serif" font-size="18" fill="#B91C1C" font-weight="bold" text-anchor="middle">3/5</text>
  <rect x="260" y="333" width="100" height="6" rx="3" fill="#E5E7EB"/>
  <rect x="260" y="333" width="60" height="6" rx="3" fill="#EF4444"/>
  
  <!-- 待处理订单 -->
  <text x="20" y="389" font-family="PingFang SC, Noto Sans SC, sans-serif" font-size="16" fill="#0F172A" font-weight="bold">待处理订单</text>
  
  <!-- 订单1 -->
  <rect x="20" y="399" width="350" height="110" rx="12" fill="#FFFFFF" stroke="#CBD5E1" stroke-width="1" filter="drop-shadow(0px 1px 2px rgba(0, 0, 0, 0.05))"/>
  <rect x="20" y="399" width="6" height="110" rx="3" fill="#F59E0B"/>
  
  <text x="40" y="419" font-family="PingFang SC, Noto Sans SC, sans-serif" font-size="14" fill="#0F172A" font-weight="bold">DD202405150023</text>
  <rect x="180" y="405" width="70" height="22" rx="4" fill="#FEF3C7"/>
  <text x="215" y="420" font-family="PingFang SC, Noto Sans SC, sans-serif" font-size="10" fill="#92400E" text-anchor="middle">高优先级</text>
  <rect x="260" y="405" width="90" height="22" rx="4" fill="#E0F2FE"/>
  <text x="305" y="420" font-family="PingFang SC, Noto Sans SC, sans-serif" font-size="10" fill="#0C4A6E" text-anchor="middle">3吨 / 4.2米车</text>
  
  <text x="40" y="442" font-family="PingFang SC, Noto Sans SC, sans-serif" font-size="12" fill="#64748B">经销商: 深圳市民生超市连锁有限公司</text>
  <text x="40" y="462" font-family="PingFang SC, Noto Sans SC, sans-serif" font-size="12" fill="#64748B">送达地址: 深圳市宝安区民治大道12号</text>
  <text x="40" y="482" font-family="PingFang SC, Noto Sans SC, sans-serif" font-size="12" fill="#64748B">订单金额: ¥86,500 | 预计送达: 今日16:00前</text>
  
  <rect x="260" y="445" width="90" height="40" rx="8" fill="#1E3A8A"/>
  <text x="305" y="470" font-family="PingFang SC, Noto Sans SC, sans-serif" font-size="14" fill="#FFFFFF" text-anchor="middle">分配车辆</text>
  
  <!-- 订单2 -->
  <rect x="20" y="519" width="350" height="110" rx="12" fill="#FFFFFF" stroke="#CBD5E1" stroke-width="1" filter="drop-shadow(0px 1px 2px rgba(0, 0, 0, 0.05))"/>
  <rect x="20" y="519" width="6" height="110" rx="3" fill="#F59E0B"/>
  
  <text x="40" y="539" font-family="PingFang SC, Noto Sans SC, sans-serif" font-size="14" fill="#0F172A" font-weight="bold">DD202405140048</text>
  <rect x="180" y="525" width="70" height="22" rx="4" fill="#FEF3C7"/>
  <text x="215" y="540" font-family="PingFang SC, Noto Sans SC, sans-serif" font-size="10" fill="#92400E" text-anchor="middle">高优先级</text>
  <rect x="260" y="525" width="90" height="22" rx="4" fill="#E0F2FE"/>
  <text x="305" y="540" font-family="PingFang SC, Noto Sans SC, sans-serif" font-size="10" fill="#0C4A6E" text-anchor="middle">2.5吨 / 4.2米车</text>
  
  <text x="40" y="562" font-family="PingFang SC, Noto Sans SC, sans-serif" font-size="12" fill="#64748B">经销商: 广州众诚贸易有限公司</text>
  <text x="40" y="582" font-family="PingFang SC, Noto Sans SC, sans-serif" font-size="12" fill="#64748B">送达地址: 广州市白云区黄石西路88号</text>
  <text x="40" y="602" font-family="PingFang SC, Noto Sans SC, sans-serif" font-size="12" fill="#64748B">订单金额: ¥51,280 | 预计送达: 今日15:00前</text>
  
  <rect x="260" y="565" width="90" height="40" rx="8" fill="#1E3A8A"/>
  <text x="305" y="590" font-family="PingFang SC, Noto Sans SC, sans-serif" font-size="14" fill="#FFFFFF" text-anchor="middle">分配车辆</text>
  
  <!-- 多点配送订单 -->
  <rect x="20" y="639" width="350" height="125" rx="12" fill="#FFFFFF" stroke="#CBD5E1" stroke-width="1" filter="drop-shadow(0px 1px 2px rgba(0, 0, 0, 0.05))"/>
  <rect x="20" y="639" width="6" height="125" rx="3" fill="#6366F1"/>
  
  <text x="40" y="659" font-family="PingFang SC, Noto Sans SC, sans-serif" font-size="14" fill="#0F172A" font-weight="bold">多点配送方案 #MP20240515</text>
  <rect x="260" y="645" width="90" height="22" rx="4" fill="#F1F5F9"/>
  <text x="305" y="660" font-family="PingFang SC, Noto Sans SC, sans-serif" font-size="10" fill="#475569" text-anchor="middle">AI生成方案</text>
  
  <text x="40" y="679" font-family="PingFang SC, Noto Sans SC, sans-serif" font-size="12" fill="#64748B">配送点: 3个零售商 (半径5公里内)</text>
  <text x="40" y="699" font-family="PingFang SC, Noto Sans SC, sans-serif" font-size="12" fill="#64748B">总货量: 2.8吨 | 车型: 4.2米 | 效率提升: 28%</text>
  <text x="40" y="719" font-family="PingFang SC, Noto Sans SC, sans-serif" font-size="12" fill="#64748B">路线: 仓库 → 零售商A → 零售商B → 零售商C</text>
  <text x="40" y="739" font-family="PingFang SC, Noto Sans SC, sans-serif" font-size="12" fill="#6366F1" font-weight="bold">可节省1车次，燃油约15%，时间约22%</text>
  
  <rect x="260" y="704" width="90" height="40" rx="8" fill="#4F46E5"/>
  <text x="305" y="729" font-family="PingFang SC, Noto Sans SC, sans-serif" font-size="14" fill="#FFFFFF" text-anchor="middle">查看详情</text>
  
  <!-- 底部导航栏 -->
  <rect x="0" y="784" width="390" height="60" fill="#FFFFFF" stroke="#E2E8F0" stroke-width="1"/>
  
  <!-- 首页图标 -->
  <circle cx="50" cy="809" r="22" fill="#F1F5F9"/>
  <path d="M50 799 L38 809 L38 824 L62 824 L62 809 Z" stroke="#64748B" stroke-width="2" fill="none"/>
  <text x="50" y="834" font-family="PingFang SC, Noto Sans SC, sans-serif" font-size="10" fill="#64748B" text-anchor="middle">首页</text>
  
  <!-- 订单图标 -->
  <circle cx="130" cy="809" r="22" fill="#F1F5F9"/>
  <rect x="118" y="799" width="24" height="20" stroke="#64748B" stroke-width="2" fill="none" rx="2"/>
  <line x1="118" y1="805" x2="142" y2="805" stroke="#64748B" stroke-width="2"/>
  <text x="130" y="834" font-family="PingFang SC, Noto Sans SC, sans-serif" font-size="10" fill="#64748B" text-anchor="middle">订单</text>
  
  <!-- 车辆图标 -->
  <circle cx="210" cy="809" r="22" fill="#F1F5F9"/>
  <path d="M200 802 L220 802 L223 809 L197 809 Z" stroke="#64748B" stroke-width="2" fill="none"/>
  <circle cx="202" cy="816" r="4" stroke="#64748B" stroke-width="2" fill="none"/>
  <circle cx="218" cy="816" r="4" stroke="#64748B" stroke-width="2" fill="none"/>
  <text x="210" y="834" font-family="PingFang SC, Noto Sans SC, sans-serif" font-size="10" fill="#64748B" text-anchor="middle">车辆</text>
  
  <!-- 调度图标 (激活状态) -->
  <circle cx="290" cy="809" r="24" fill="#1E3A8A"/>
  <rect x="280" y="799" width="12" height="10" stroke="#FFFFFF" stroke-width="2" fill="none"/>
  <path d="M292 809 L280 809 L280 799" stroke="#FFFFFF" stroke-width="2" fill="none"/>
  <circle cx="283" cy="814" r="3" stroke="#FFFFFF" stroke-width="2" fill="none"/>
  <circle cx="292" cy="814" r="3" stroke="#FFFFFF" stroke-width="2" fill="none"/>
  <text x="290" y="834" font-family="PingFang SC, Noto Sans SC, sans-serif" font-size="10" fill="#1E3A8A" text-anchor="middle" font-weight="bold">调度</text>
  
  <!-- 我的图标 -->
  <circle cx="350" cy="809" r="22" fill="#F1F5F9"/>
  <circle cx="350" cy="804" r="8" stroke="#64748B" stroke-width="2" fill="none"/>
  <path d="M338 824 C338 816 362 816 362 824" stroke="#64748B" stroke-width="2" fill="none"/>
  <text x="350" y="834" font-family="PingFang SC, Noto Sans SC, sans-serif" font-size="10" fill="#64748B" text-anchor="middle">我的</text>
</svg>