<?xml version="1.0" encoding="UTF-8" standalone="no"?>
<svg width="390" height="844" viewBox="0 0 390 844" fill="none" xmlns="http://www.w3.org/2000/svg">
  <!-- 背景 -->
  <rect width="390" height="844" fill="#F8FAFC"/>
  
  <!-- 状态栏 -->
  <rect width="390" height="44" fill="#475569"/>
  <text x="195" y="27" font-family="PingFang SC, Noto Sans SC, sans-serif" font-size="16" fill="#FFFFFF" text-anchor="middle" font-weight="bold">物流配送管理</text>
  
  <!-- 用户信息栏 -->
  <rect x="0" y="44" width="390" height="60" fill="#FFFFFF"/>
  <text x="20" y="80" font-family="PingFang SC, Noto Sans SC, sans-serif" font-size="18" fill="#475569" font-weight="bold">整车配送计划</text>
  <rect x="320" y="62" width="50" height="24" rx="12" fill="#E2E8F0"/>
  <text x="345" y="78" font-family="PingFang SC, Noto Sans SC, sans-serif" font-size="12" fill="#475569" text-anchor="middle">筛选</text>
  
  <!-- 配送统计卡片 -->
  <rect x="20" y="114" width="350" height="100" rx="16" fill="#FFFFFF" stroke="#E2E8F0" stroke-width="1"/>
  
  <!-- 配送指标卡片 -->
  <rect x="40" y="129" width="96" height="70" rx="8" fill="#F8FAFC"/>
  <text x="88" y="154" font-family="PingFang SC, Noto Sans SC, sans-serif" font-size="12" fill="#475569" text-anchor="middle">待发货</text>
  <text x="88" y="179" font-family="PingFang SC, Noto Sans SC, sans-serif" font-size="20" fill="#475569" font-weight="bold" text-anchor="middle">12</text>
  
  <rect x="146" y="129" width="96" height="70" rx="8" fill="#F8FAFC"/>
  <text x="194" y="154" font-family="PingFang SC, Noto Sans SC, sans-serif" font-size="12" fill="#475569" text-anchor="middle">配送中</text>
  <text x="194" y="179" font-family="PingFang SC, Noto Sans SC, sans-serif" font-size="20" fill="#475569" font-weight="bold" text-anchor="middle">8</text>
  
  <rect x="252" y="129" width="96" height="70" rx="8" fill="#F8FAFC"/>
  <text x="300" y="154" font-family="PingFang SC, Noto Sans SC, sans-serif" font-size="12" fill="#475569" text-anchor="middle">今日完成</text>
  <text x="300" y="179" font-family="PingFang SC, Noto Sans SC, sans-serif" font-size="20" fill="#475569" font-weight="bold" text-anchor="middle">6</text>
  
  <!-- 车辆状态卡片 -->
  <rect x="20" y="224" width="350" height="120" rx="16" fill="#FFFFFF" stroke="#E2E8F0" stroke-width="1"/>
  <text x="40" y="249" font-family="PingFang SC, Noto Sans SC, sans-serif" font-size="16" fill="#0F172A" font-weight="bold">车辆资源</text>
  
  <!-- 车辆类型1 - 自备车 -->
  <rect x="40" y="259" width="150" height="70" rx="8" fill="#F0FDF4"/>
  <text x="55" y="279" font-family="PingFang SC, Noto Sans SC, sans-serif" font-size="12" fill="#166534">自备车</text>
  <text x="55" y="299" font-family="PingFang SC, Noto Sans SC, sans-serif" font-size="16" fill="#166534" font-weight="bold">8 / 10</text>
  <text x="55" y="319" font-family="PingFang SC, Noto Sans SC, sans-serif" font-size="10" fill="#166534">可用 / 总数</text>
  
  <!-- 车辆类型2 - 长租车 -->
  <rect x="200" y="259" width="150" height="70" rx="8" fill="#EFF6FF"/>
  <text x="215" y="279" font-family="PingFang SC, Noto Sans SC, sans-serif" font-size="12" fill="#1E40AF">长租车</text>
  <text x="215" y="299" font-family="PingFang SC, Noto Sans SC, sans-serif" font-size="16" fill="#1E40AF" font-weight="bold">5 / 8</text>
  <text x="215" y="319" font-family="PingFang SC, Noto Sans SC, sans-serif" font-size="10" fill="#1E40AF">可用 / 总数</text>
  
  <!-- 车辆类型3 - 短租车 -->
  <rect x="40" y="354" width="150" height="70" rx="8" fill="#FEF2F2"/>
  <text x="55" y="374" font-family="PingFang SC, Noto Sans SC, sans-serif" font-size="12" fill="#B91C1C">短租车</text>
  <text x="55" y="394" font-family="PingFang SC, Noto Sans SC, sans-serif" font-size="16" fill="#B91C1C" font-weight="bold">3 / 5</text>
  <text x="55" y="414" font-family="PingFang SC, Noto Sans SC, sans-serif" font-size="10" fill="#B91C1C">可用 / 总数</text>
  
  <!-- 寻找短租车 -->
  <rect x="200" y="354" width="150" height="70" rx="8" fill="#475569" fill-opacity="0.1"/>
  <text x="275" y="394" font-family="PingFang SC, Noto Sans SC, sans-serif" font-size="14" fill="#475569" font-weight="bold" text-anchor="middle">寻找短租车</text>
  
  <!-- 待发货订单列表 -->
  <text x="40" y="454" font-family="PingFang SC, Noto Sans SC, sans-serif" font-size="16" fill="#0F172A" font-weight="bold">待发货整车订单</text>
  
  <!-- 订单1 -->
  <rect x="20" y="464" width="350" height="90" rx="12" fill="#FFFFFF" stroke="#E2E8F0" stroke-width="1"/>
  <text x="35" y="484" font-family="PingFang SC, Noto Sans SC, sans-serif" font-size="14" fill="#0F172A" font-weight="bold">订单号: DD202405150023</text>
  <text x="35" y="504" font-family="PingFang SC, Noto Sans SC, sans-serif" font-size="12" fill="#64748B">经销商: 深圳市民生超市连锁有限公司</text>
  <text x="35" y="524" font-family="PingFang SC, Noto Sans SC, sans-serif" font-size="12" fill="#64748B">送货地址: 深圳市宝安区民治大道12号</text>
  <text x="35" y="544" font-family="PingFang SC, Noto Sans SC, sans-serif" font-size="12" fill="#64748B">货物: 饮料、零食等 共120箱 (需4.2米车)</text>
  
  <rect x="270" y="479" width="80" height="25" rx="4" fill="#FEF3C7"/>
  <text x="310" y="496" font-family="PingFang SC, Noto Sans SC, sans-serif" font-size="10" fill="#92400E" text-anchor="middle">今日送达</text>
  
  <rect x="270" y="509" width="80" height="25" rx="4" fill="#475569"/>
  <text x="310" y="526" font-family="PingFang SC, Noto Sans SC, sans-serif" font-size="10" fill="#FFFFFF" text-anchor="middle">安排车辆</text>
  
  <!-- 订单2 -->
  <rect x="20" y="564" width="350" height="90" rx="12" fill="#FFFFFF" stroke="#E2E8F0" stroke-width="1"/>
  <text x="35" y="584" font-family="PingFang SC, Noto Sans SC, sans-serif" font-size="14" fill="#0F172A" font-weight="bold">订单号: DD202405140056</text>
  <text x="35" y="604" font-family="PingFang SC, Noto Sans SC, sans-serif" font-size="12" fill="#64748B">经销商: 广州众诚贸易有限公司</text>
  <text x="35" y="624" font-family="PingFang SC, Noto Sans SC, sans-serif" font-size="12" fill="#64748B">送货地址: 广州市白云区黄石西路88号</text>
  <text x="35" y="644" font-family="PingFang SC, Noto Sans SC, sans-serif" font-size="12" fill="#64748B">货物: 调味品、罐头等 共85箱 (需4.2米车)</text>
  
  <rect x="270" y="579" width="80" height="25" rx="4" fill="#FEF3C7"/>
  <text x="310" y="596" font-family="PingFang SC, Noto Sans SC, sans-serif" font-size="10" fill="#92400E" text-anchor="middle">今日送达</text>
  
  <rect x="270" y="609" width="80" height="25" rx="4" fill="#475569"/>
  <text x="310" y="626" font-family="PingFang SC, Noto Sans SC, sans-serif" font-size="10" fill="#FFFFFF" text-anchor="middle">安排车辆</text>
  
  <!-- 正在配送 -->
  <text x="40" y="674" font-family="PingFang SC, Noto Sans SC, sans-serif" font-size="16" fill="#0F172A" font-weight="bold">正在配送</text>
  
  <!-- 配送中订单 -->
  <rect x="20" y="684" width="350" height="80" rx="12" fill="#FFFFFF" stroke="#E2E8F0" stroke-width="1"/>
  <rect x="20" y="684" width="5" height="80" fill="#22C55E" rx="2"/>
  
  <text x="35" y="704" font-family="PingFang SC, Noto Sans SC, sans-serif" font-size="14" fill="#0F172A" font-weight="bold">订单号: DD202405130012</text>
  <text x="35" y="724" font-family="PingFang SC, Noto Sans SC, sans-serif" font-size="12" fill="#64748B">经销商: 东莞市好又多商贸有限公司</text>
  <text x="35" y="744" font-family="PingFang SC, Noto Sans SC, sans-serif" font-size="12" fill="#64748B">车辆: 粤B12345 (自备车)</text>
  
  <rect x="270" y="704" width="80" height="40" rx="4" fill="#E0F2FE"/>
  <text x="310" y="724" font-family="PingFang SC, Noto Sans SC, sans-serif" font-size="10" fill="#0C4A6E" text-anchor="middle">15:30</text>
  <text x="310" y="739" font-family="PingFang SC, Noto Sans SC, sans-serif" font-size="10" fill="#0C4A6E" text-anchor="middle">预计到达</text>
  
  <!-- 底部导航栏 -->
  <rect x="0" y="774" width="390" height="70" fill="#FFFFFF" stroke="#E2E8F0" stroke-width="1"/>
  
  <!-- 首页图标 -->
  <rect x="15" y="784" width="70" height="50" fill="#FFFFFF"/>
  <path d="M50 794 L35 804 L35 824 L65 824 L65 804 Z" stroke="#94A3B8" stroke-width="2" fill="none"/>
  <text x="50" y="844" font-family="PingFang SC, Noto Sans SC, sans-serif" font-size="12" fill="#94A3B8" text-anchor="middle">首页</text>
  
  <!-- 订单图标 -->
  <rect x="95" y="784" width="70" height="50" fill="#FFFFFF"/>
  <rect x="110" y="794" width="40" height="30" stroke="#94A3B8" stroke-width="2" fill="none" rx="2"/>
  <line x1="110" y1="804" x2="150" y2="804" stroke="#94A3B8" stroke-width="2"/>
  <text x="130" y="844" font-family="PingFang SC, Noto Sans SC, sans-serif" font-size="12" fill="#94A3B8" text-anchor="middle">订单</text>
  
  <!-- 车辆图标 -->
  <rect x="175" y="784" width="70" height="50" fill="#FFFFFF"/>
  <path d="M195 794 L215 794 L220 804 L190 804 Z" stroke="#94A3B8" stroke-width="2" fill="none"/>
  <circle cx="195" cy="809" r="5" stroke="#94A3B8" stroke-width="2" fill="none"/>
  <circle cx="215" cy="809" r="5" stroke="#94A3B8" stroke-width="2" fill="none"/>
  <text x="210" y="844" font-family="PingFang SC, Noto Sans SC, sans-serif" font-size="12" fill="#94A3B8" text-anchor="middle">车辆</text>
  
  <!-- 物流图标 (激活状态) -->
  <rect x="255" y="784" width="70" height="50" fill="#FFFFFF"/>
  <rect x="270" y="794" width="20" height="15" stroke="#475569" stroke-width="2" fill="none"/>
  <path d="M290 809 L270 809 L270 794" stroke="#475569" stroke-width="2" fill="none"/>
  <circle cx="275" cy="814" r="5" stroke="#475569" stroke-width="2" fill="none"/>
  <circle cx="290" cy="814" r="5" stroke="#475569" stroke-width="2" fill="none"/>
  <text x="290" y="844" font-family="PingFang SC, Noto Sans SC, sans-serif" font-size="12" fill="#475569" text-anchor="middle" font-weight="bold">物流</text>
  
  <!-- 我的图标 -->
  <rect x="325" y="784" width="50" height="50" fill="#FFFFFF"/>
  <circle cx="350" cy="799" r="10" stroke="#94A3B8" stroke-width="2" fill="none"/>
  <path d="M335 824 C335 814 365 814 365 824" stroke="#94A3B8" stroke-width="2" fill="none"/>
  <text x="350" y="844" font-family="PingFang SC, Noto Sans SC, sans-serif" font-size="12" fill="#94A3B8" text-anchor="middle">我的</text>
</svg>