<?xml version="1.0" encoding="UTF-8" standalone="no"?>
<svg width="390" height="844" viewBox="0 0 390 844" fill="none" xmlns="http://www.w3.org/2000/svg">
  <!-- 背景 -->
  <rect width="390" height="844" fill="#F8FAFC"/>
  
  <!-- 状态栏 -->
  <rect width="390" height="44" fill="#047857"/>
  <text x="195" y="27" font-family="Arial" font-size="16" fill="#FFFFFF" text-anchor="middle" font-weight="bold">销售管理平台</text>
  
  <!-- 用户信息栏 -->
  <rect x="0" y="44" width="390" height="80" fill="#FFFFFF"/>
  <circle cx="45" cy="84" r="24" fill="#047857"/>
  <text x="45" y="89" font-family="Arial" font-size="14" fill="#FFFFFF" text-anchor="middle">销</text>
  <text x="85" y="74" font-family="Arial" font-size="16" fill="#047857" font-weight="bold">销售经理</text>
  <text x="85" y="94" font-family="Arial" font-size="12" fill="#64748B">区域销售 - 李明</text>
  <rect x="310" y="74" width="60" height="24" rx="12" fill="#ECFDF5"/>
  <text x="340" y="90" font-family="Arial" font-size="12" fill="#047857" text-anchor="middle">目标</text>
  
  <!-- 销售业绩区域 -->
  <rect x="20" y="134" width="350" height="120" rx="16" fill="#FFFFFF" stroke="#E2E8F0" stroke-width="1"/>
  <text x="40" y="154" font-family="Arial" font-size="16" fill="#047857" font-weight="bold">本月销售业绩</text>
  
  <!-- 销售指标卡片 -->
  <rect x="40" y="164" width="103" height="70" rx="8" fill="#ECFDF5"/>
  <text x="50" y="184" font-family="Arial" font-size="12" fill="#047857">完成金额</text>
  <text x="50" y="214" font-family="Arial" font-size="20" fill="#047857" font-weight="bold">¥287K</text>
  
  <rect x="153" y="164" width="103" height="70" rx="8" fill="#ECFDF5"/>
  <text x="163" y="184" font-family="Arial" font-size="12" fill="#047857">订单数量</text>
  <text x="163" y="214" font-family="Arial" font-size="20" fill="#047857" font-weight="bold">427</text>
  
  <rect x="266" y="164" width="103" height="70" rx="8" fill="#ECFDF5"/>
  <text x="276" y="184" font-family="Arial" font-size="12" fill="#047857">目标达成</text>
  <text x="276" y="214" font-family="Arial" font-size="20" fill="#047857" font-weight="bold">92%</text>
  
  <!-- 销售图表区域 -->
  <rect x="20" y="264" width="350" height="150" rx="16" fill="#FFFFFF" stroke="#E2E8F0" stroke-width="1"/>
  <text x="40" y="284" font-family="Arial" font-size="16" fill="#047857" font-weight="bold">销售趋势</text>
  
  <!-- 简化的图表 -->
  <rect x="40" y="294" width="310" height="100" rx="8" fill="#ECFDF5" fill-opacity="0.3"/>
  <polyline points="40,374 90,340 140,350 190,320 240,330 290,310 350,290" stroke="#059669" stroke-width="2" fill="none"/>
  <circle cx="90" cy="340" r="4" fill="#059669"/>
  <circle cx="140" cy="350" r="4" fill="#059669"/>
  <circle cx="190" cy="320" r="4" fill="#059669"/>
  <circle cx="240" cy="330" r="4" fill="#059669"/>
  <circle cx="290" cy="310" r="4" fill="#059669"/>
  <circle cx="350" cy="290" r="4" fill="#059669"/>
  
  <!-- 客户列表区域 -->
  <rect x="20" y="424" width="350" height="190" rx="16" fill="#FFFFFF" stroke="#E2E8F0" stroke-width="1"/>
  <text x="40" y="444" font-family="Arial" font-size="16" fill="#047857" font-weight="bold">最近跟进客户</text>
  
  <!-- 客户1 -->
  <rect x="40" y="454" width="310" height="50" rx="8" fill="#FFFFFF" stroke="#ECFDF5" stroke-width="1"/>
  <circle cx="60" cy="479" r="15" fill="#ECFDF5"/>
  <text x="60" y="483" font-family="Arial" font-size="10" fill="#047857" text-anchor="middle">惠</text>
  <text x="85" y="474" font-family="Arial" font-size="14" fill="#2D3748">惠民连锁超市</text>
  <text x="85" y="494" font-family="Arial" font-size="12" fill="#64748B">上次订单: 2天前</text>
  <rect x="270" y="469" width="70" height="24" rx="12" fill="#ECFDF5"/>
  <text x="305" y="485" font-family="Arial" font-size="12" fill="#047857" text-anchor="middle">拜访</text>
  
  <!-- 客户2 -->
  <rect x="40" y="514" width="310" height="50" rx="8" fill="#FFFFFF" stroke="#ECFDF5" stroke-width="1"/>
  <circle cx="60" cy="539" r="15" fill="#ECFDF5"/>
  <text x="60" y="543" font-family="Arial" font-size="10" fill="#047857" text-anchor="middle">金</text>
  <text x="85" y="534" font-family="Arial" font-size="14" fill="#2D3748">金鼎商贸有限公司</text>
  <text x="85" y="554" font-family="Arial" font-size="12" fill="#64748B">上次订单: 5天前</text>
  <rect x="270" y="529" width="70" height="24" rx="12" fill="#ECFDF5"/>
  <text x="305" y="545" font-family="Arial" font-size="12" fill="#047857" text-anchor="middle">跟进</text>
  
  <!-- 客户3 -->
  <rect x="40" y="574" width="310" height="50" rx="8" fill="#FFFFFF" stroke="#ECFDF5" stroke-width="1"/>
  <circle cx="60" cy="599" r="15" fill="#ECFDF5"/>
  <text x="60" y="603" font-family="Arial" font-size="10" fill="#047857" text-anchor="middle">永</text>
  <text x="85" y="594" font-family="Arial" font-size="14" fill="#2D3748">永辉超市南京分店</text>
  <text x="85" y="614" font-family="Arial" font-size="12" fill="#64748B">上次订单: 今天</text>
  <rect x="270" y="589" width="70" height="24" rx="12" fill="#ECFDF5"/>
  <text x="305" y="605" font-family="Arial" font-size="12" fill="#047857" text-anchor="middle">联系</text>
  
  <!-- 快捷功能区 -->
  <text x="40" y="634" font-family="Arial" font-size="16" fill="#047857" font-weight="bold">销售工具</text>
  
  <!-- 功能按钮第一行 -->
  <rect x="20" y="644" width="110" height="90" rx="12" fill="#FFFFFF" stroke="#E2E8F0" stroke-width="1"/>
  <circle cx="75" cy="679" r="25" fill="#ECFDF5"/>
  <text x="75" y="684" font-family="Arial" font-size="14" fill="#047857" text-anchor="middle">客</text>
  <text x="75" y="719" font-family="Arial" font-size="14" fill="#047857" text-anchor="middle">客户管理</text>
  
  <rect x="140" y="644" width="110" height="90" rx="12" fill="#FFFFFF" stroke="#E2E8F0" stroke-width="1"/>
  <circle cx="195" cy="679" r="25" fill="#ECFDF5"/>
  <text x="195" y="684" font-family="Arial" font-size="14" fill="#047857" text-anchor="middle">订</text>
  <text x="195" y="719" font-family="Arial" font-size="14" fill="#047857" text-anchor="middle">订单跟踪</text>
  
  <rect x="260" y="644" width="110" height="90" rx="12" fill="#FFFFFF" stroke="#E2E8F0" stroke-width="1"/>
  <circle cx="315" cy="679" r="25" fill="#ECFDF5"/>
  <text x="315" y="684" font-family="Arial" font-size="14" fill="#047857" text-anchor="middle">促</text>
  <text x="315" y="719" font-family="Arial" font-size="14" fill="#047857" text-anchor="middle">促销活动</text>
  
  <!-- 底部导航栏 -->
  <rect x="0" y="790" width="390" height="54" fill="#FFFFFF" stroke="#E2E8F0" stroke-width="1"/>
  
  <text x="65" y="825" font-family="Arial" font-size="12" fill="#047857" text-anchor="middle">销售</text>
  <circle cx="65" cy="810" r="14" fill="#ECFDF5"/>
  <text x="65" y="814" font-family="Arial" font-size="10" fill="#047857" text-anchor="middle">销</text>
  
  <text x="195" y="825" font-family="Arial" font-size="12" fill="#64748B" text-anchor="middle">客户</text>
  <circle cx="195" cy="810" r="14" fill="#F1F5F9"/>
  <text x="195" y="814" font-family="Arial" font-size="10" fill="#64748B" text-anchor="middle">客</text>
  
  <text x="325" y="825" font-family="Arial" font-size="12" fill="#64748B" text-anchor="middle">我的</text>
  <circle cx="325" cy="810" r="14" fill="#F1F5F9"/>
  <text x="325" y="814" font-family="Arial" font-size="10" fill="#64748B" text-anchor="middle">我</text>
</svg>