<?xml version="1.0" encoding="UTF-8" standalone="no"?>
<svg width="390" height="844" viewBox="0 0 390 844" fill="none" xmlns="http://www.w3.org/2000/svg">
  <!-- 背景 -->
  <rect width="390" height="844" fill="#F7F9FC"/>
  
  <!-- 状态栏 -->
  <rect width="390" height="44" fill="#1E3A8A"/>
  <text x="195" y="27" font-family="PingFang SC, Noto Sans SC, sans-serif" font-size="16" fill="#FFFFFF" text-anchor="middle" font-weight="bold">车辆资源管理</text>
  
  <!-- 用户信息栏 -->
  <rect x="0" y="44" width="390" height="60" fill="#FFFFFF"/>
  <text x="20" y="80" font-family="PingFang SC, Noto Sans SC, sans-serif" font-size="18" fill="#1E3A8A" font-weight="bold">车辆资源中心</text>
  
  <!-- 标签切换 -->
  <rect x="246" y="62" width="124" height="28" rx="14" fill="#EBF0FF" stroke="#CBD5E1" stroke-width="1"/>
  <rect x="247" y="63" width="40" height="26" rx="13" fill="#1E3A8A"/>
  <text x="267" y="80" font-family="PingFang SC, Noto Sans SC, sans-serif" font-size="12" fill="#FFFFFF" text-anchor="middle" font-weight="bold">全部</text>
  <text x="308" y="80" font-family="PingFang SC, Noto Sans SC, sans-serif" font-size="12" fill="#64748B" text-anchor="middle">空闲</text>
  <text x="348" y="80" font-family="PingFang SC, Noto Sans SC, sans-serif" font-size="12" fill="#64748B" text-anchor="middle">忙碌</text>
  
  <!-- 车辆资源统计卡片 -->
  <rect x="20" y="114" width="350" height="110" rx="16" fill="#FFFFFF" stroke="#CBD5E1" stroke-width="1" filter="drop-shadow(0px 1px 2px rgba(0, 0, 0, 0.05))"/>
  
  <!-- 统计数据 -->
  <text x="40" y="139" font-family="PingFang SC, Noto Sans SC, sans-serif" font-size="16" fill="#0F172A" font-weight="bold">车辆资源总览</text>
  
  <rect x="40" y="149" width="96" height="60" rx="8" fill="#F0FDF4"/>
  <text x="88" y="169" font-family="PingFang SC, Noto Sans SC, sans-serif" font-size="12" fill="#166534" text-anchor="middle">自备车</text>
  <text x="88" y="189" font-family="PingFang SC, Noto Sans SC, sans-serif" font-size="18" fill="#166534" font-weight="bold" text-anchor="middle">10</text>
  <text x="88" y="204" font-family="PingFang SC, Noto Sans SC, sans-serif" font-size="10" fill="#166534" text-anchor="middle">可用: 8</text>
  
  <rect x="146" y="149" width="96" height="60" rx="8" fill="#EFF6FF"/>
  <text x="194" y="169" font-family="PingFang SC, Noto Sans SC, sans-serif" font-size="12" fill="#1E40AF" text-anchor="middle">长租车</text>
  <text x="194" y="189" font-family="PingFang SC, Noto Sans SC, sans-serif" font-size="18" fill="#1E40AF" font-weight="bold" text-anchor="middle">8</text>
  <text x="194" y="204" font-family="PingFang SC, Noto Sans SC, sans-serif" font-size="10" fill="#1E40AF" text-anchor="middle">可用: 6</text>
  
  <rect x="252" y="149" width="96" height="60" rx="8" fill="#FEF2F2"/>
  <text x="300" y="169" font-family="PingFang SC, Noto Sans SC, sans-serif" font-size="12" fill="#B91C1C" text-anchor="middle">短租车</text>
  <text x="300" y="189" font-family="PingFang SC, Noto Sans SC, sans-serif" font-size="18" fill="#B91C1C" font-weight="bold" text-anchor="middle">5</text>
  <text x="300" y="204" font-family="PingFang SC, Noto Sans SC, sans-serif" font-size="10" fill="#B91C1C" text-anchor="middle">可用: 3</text>
  
  <!-- 车辆利用率 -->
  <rect x="20" y="234" width="350" height="110" rx="16" fill="#FFFFFF" stroke="#CBD5E1" stroke-width="1" filter="drop-shadow(0px 1px 2px rgba(0, 0, 0, 0.05))"/>
  <text x="40" y="259" font-family="PingFang SC, Noto Sans SC, sans-serif" font-size="16" fill="#0F172A" font-weight="bold">车辆利用率</text>
  
  <!-- 自备车利用率 -->
  <text x="40" y="284" font-family="PingFang SC, Noto Sans SC, sans-serif" font-size="12" fill="#475569">自备车</text>
  <rect x="120" y="278" width="200" height="10" rx="5" fill="#E2E8F0"/>
  <rect x="120" y="278" width="160" height="10" rx="5" fill="#22C55E"/>
  <text x="330" y="284" font-family="PingFang SC, Noto Sans SC, sans-serif" font-size="12" fill="#475569">80%</text>
  
  <!-- 长租车利用率 -->
  <text x="40" y="309" font-family="PingFang SC, Noto Sans SC, sans-serif" font-size="12" fill="#475569">长租车</text>
  <rect x="120" y="303" width="200" height="10" rx="5" fill="#E2E8F0"/>
  <rect x="120" y="303" width="150" height="10" rx="5" fill="#3B82F6"/>
  <text x="330" y="309" font-family="PingFang SC, Noto Sans SC, sans-serif" font-size="12" fill="#475569">75%</text>
  
  <!-- 短租车利用率 -->
  <text x="40" y="334" font-family="PingFang SC, Noto Sans SC, sans-serif" font-size="12" fill="#475569">短租车</text>
  <rect x="120" y="328" width="200" height="10" rx="5" fill="#E2E8F0"/>
  <rect x="120" y="328" width="120" height="10" rx="5" fill="#EF4444"/>
  <text x="330" y="334" font-family="PingFang SC, Noto Sans SC, sans-serif" font-size="12" fill="#475569">60%</text>
  
  <!-- 车辆列表 -->
  <text x="20" y="369" font-family="PingFang SC, Noto Sans SC, sans-serif" font-size="16" fill="#0F172A" font-weight="bold">车辆列表</text>
  
  <!-- 车辆1 -->
  <rect x="20" y="379" width="350" height="90" rx="12" fill="#FFFFFF" stroke="#CBD5E1" stroke-width="1" filter="drop-shadow(0px 1px 2px rgba(0, 0, 0, 0.05))"/>
  <rect x="20" y="379" width="6" height="90" rx="3" fill="#22C55E"/>
  
  <text x="40" y="399" font-family="PingFang SC, Noto Sans SC, sans-serif" font-size="14" fill="#0F172A" font-weight="bold">粤B-12345</text>
  <rect x="120" y="385" width="70" height="22" rx="4" fill="#F0FDF4"/>
  <text x="155" y="400" font-family="PingFang SC, Noto Sans SC, sans-serif" font-size="10" fill="#166534" text-anchor="middle">自备车</text>
  <rect x="200" y="385" width="70" height="22" rx="4" fill="#E0F2FE"/>
  <text x="235" y="400" font-family="PingFang SC, Noto Sans SC, sans-serif" font-size="10" fill="#0C4A6E" text-anchor="middle">4.2米</text>
  <rect x="280" y="385" width="70" height="22" rx="4" fill="#F1F5F9"/>
  <text x="315" y="400" font-family="PingFang SC, Noto Sans SC, sans-serif" font-size="10" fill="#475569" text-anchor="middle">5吨</text>
  
  <text x="40" y="422" font-family="PingFang SC, Noto Sans SC, sans-serif" font-size="12" fill="#64748B">司机: 张师傅 | 电话: 138****1234</text>
  <text x="40" y="442" font-family="PingFang SC, Noto Sans SC, sans-serif" font-size="12" fill="#64748B">状态: 正在配送 | 预计空闲: 15:30</text>
  <text x="40" y="462" font-family="PingFang SC, Noto Sans SC, sans-serif" font-size="12" fill="#64748B">订单: DD202405130012 (东莞市好又多)</text>
  
  <!-- 车辆2 -->
  <rect x="20" y="479" width="350" height="90" rx="12" fill="#FFFFFF" stroke="#CBD5E1" stroke-width="1" filter="drop-shadow(0px 1px 2px rgba(0, 0, 0, 0.05))"/>
  <rect x="20" y="479" width="6" height="90" rx="3" fill="#22C55E"/>
  
  <text x="40" y="499" font-family="PingFang SC, Noto Sans SC, sans-serif" font-size="14" fill="#0F172A" font-weight="bold">粤B-67890</text>
  <rect x="120" y="485" width="70" height="22" rx="4" fill="#F0FDF4"/>
  <text x="155" y="500" font-family="PingFang SC, Noto Sans SC, sans-serif" font-size="10" fill="#166534" text-anchor="middle">自备车</text>
  <rect x="200" y="485" width="70" height="22" rx="4" fill="#E0F2FE"/>
  <text x="235" y="500" font-family="PingFang SC, Noto Sans SC, sans-serif" font-size="10" fill="#0C4A6E" text-anchor="middle">6.8米</text>
  <rect x="280" y="485" width="70" height="22" rx="4" fill="#F1F5F9"/>
  <text x="315" y="500" font-family="PingFang SC, Noto Sans SC, sans-serif" font-size="10" fill="#475569" text-anchor="middle">8吨</text>
  
  <text x="40" y="522" font-family="PingFang SC, Noto Sans SC, sans-serif" font-size="12" fill="#64748B">司机: 李师傅 | 电话: 139****5678</text>
  <text x="40" y="542" font-family="PingFang SC, Noto Sans SC, sans-serif" font-size="12" fill="#166534" font-weight="bold">状态: 空闲 | 可立即调度</text>
  <rect x="280" y="525" width="70" height="25" rx="4" fill="#1E3A8A"/>
  <text x="315" y="542" font-family="PingFang SC, Noto Sans SC, sans-serif" font-size="10" fill="#FFFFFF" text-anchor="middle">调度</text>
  
  <!-- 车辆3 -->
  <rect x="20" y="579" width="350" height="90" rx="12" fill="#FFFFFF" stroke="#CBD5E1" stroke-width="1" filter="drop-shadow(0px 1px 2px rgba(0, 0, 0, 0.05))"/>
  <rect x="20" y="579" width="6" height="90" rx="3" fill="#3B82F6"/>
  
  <text x="40" y="599" font-family="PingFang SC, Noto Sans SC, sans-serif" font-size="14" fill="#0F172A" font-weight="bold">粤A-78543</text>
  <rect x="120" y="585" width="70" height="22" rx="4" fill="#EFF6FF"/>
  <text x="155" y="600" font-family="PingFang SC, Noto Sans SC, sans-serif" font-size="10" fill="#1E40AF" text-anchor="middle">长租车</text>
  <rect x="200" y="585" width="70" height="22" rx="4" fill="#E0F2FE"/>
  <text x="235" y="600" font-family="PingFang SC, Noto Sans SC, sans-serif" font-size="10" fill="#0C4A6E" text-anchor="middle">4.2米</text>
  <rect x="280" y="585" width="70" height="22" rx="4" fill="#F1F5F9"/>
  <text x="315" y="600" font-family="PingFang SC, Noto Sans SC, sans-serif" font-size="10" fill="#475569" text-anchor="middle">5吨</text>
  
  <text x="40" y="622" font-family="PingFang SC, Noto Sans SC, sans-serif" font-size="12" fill="#64748B">司机: 王师傅 | 电话: 135****2468</text>
  <text x="40" y="642" font-family="PingFang SC, Noto Sans SC, sans-serif" font-size="12" fill="#166534" font-weight="bold">状态: 空闲 | 可立即调度</text>
  <rect x="280" y="625" width="70" height="25" rx="4" fill="#1E3A8A"/>
  <text x="315" y="642" font-family="PingFang SC, Noto Sans SC, sans-serif" font-size="10" fill="#FFFFFF" text-anchor="middle">调度</text>
  
  <!-- 车辆4 -->
  <rect x="20" y="679" width="350" height="90" rx="12" fill="#FFFFFF" stroke="#CBD5E1" stroke-width="1" filter="drop-shadow(0px 1px 2px rgba(0, 0, 0, 0.05))"/>
  <rect x="20" y="679" width="6" height="90" rx="3" fill="#EF4444"/>
  
  <text x="40" y="699" font-family="PingFang SC, Noto Sans SC, sans-serif" font-size="14" fill="#0F172A" font-weight="bold">粤C-55621</text>
  <rect x="120" y="685" width="70" height="22" rx="4" fill="#FEF2F2"/>
  <text x="155" y="700" font-family="PingFang SC, Noto Sans SC, sans-serif" font-size="10" fill="#B91C1C" text-anchor="middle">短租车</text>
  <rect x="200" y="685" width="70" height="22" rx="4" fill="#E0F2FE"/>
  <text x="235" y="700" font-family="PingFang SC, Noto Sans SC, sans-serif" font-size="10" fill="#0C4A6E" text-anchor="middle">7.6米</text>
  <rect x="280" y="685" width="70" height="22" rx="4" fill="#F1F5F9"/>
  <text x="315" y="700" font-family="PingFang SC, Noto Sans SC, sans-serif" font-size="10" fill="#475569" text-anchor="middle">12吨</text>
  
  <text x="40" y="722" font-family="PingFang SC, Noto Sans SC, sans-serif" font-size="12" fill="#64748B">司机: 赵师傅 | 电话: 136****3579</text>
  <text x="40" y="742" font-family="PingFang SC, Noto Sans SC, sans-serif" font-size="12" fill="#166534" font-weight="bold">状态: 空闲 | 可立即调度</text>
  <rect x="280" y="725" width="70" height="25" rx="4" fill="#1E3A8A"/>
  <text x="315" y="742" font-family="PingFang SC, Noto Sans SC, sans-serif" font-size="10" fill="#FFFFFF" text-anchor="middle">调度</text>
  
  <!-- 底部导航栏 -->
  <rect x="0" y="784" width="390" height="60" fill="#FFFFFF" stroke="#E2E8F0" stroke-width="1"/>
  
  <!-- 首页图标 -->
  <circle cx="50" cy="809" r="22" fill="#F1F5F9"/>
  <path d="M50 799 L38 809 L38 824 L62 824 L62 809 Z" stroke="#64748B" stroke-width="2" fill="none"/>
  <text x="50" y="834" font-family="PingFang SC, Noto Sans SC, sans-serif" font-size="10" fill="#64748B" text-anchor="middle">首页</text>
  
  <!-- 订单图标 -->
  <circle cx="130" cy="809" r="22" fill="#F1F5F9"/>
  <rect x="118" y="799" width="24" height="20" stroke="#64748B" stroke-width="2" fill="none" rx="2"/>
  <line x1="118" y1="805" x2="142" y2="805" stroke="#64748B" stroke-width="2"/>
  <text x="130" y="834" font-family="PingFang SC, Noto Sans SC, sans-serif" font-size="10" fill="#64748B" text-anchor="middle">订单</text>
  
  <!-- 车辆图标（激活状态） -->
  <circle cx="210" cy="809" r="24" fill="#1E3A8A"/>
  <path d="M200 802 L220 802 L223 809 L197 809 Z" stroke="#FFFFFF" stroke-width="2" fill="none"/>
  <circle cx="202" cy="816" r="4" stroke="#FFFFFF" stroke-width="2" fill="none"/>
  <circle cx="218" cy="816" r="4" stroke="#FFFFFF" stroke-width="2" fill="none"/>
  <text x="210" y="834" font-family="PingFang SC, Noto Sans SC, sans-serif" font-size="10" fill="#1E3A8A" text-anchor="middle" font-weight="bold">车辆</text>
  
  <!-- 调度图标 -->
  <circle cx="290" cy="809" r="22" fill="#F1F5F9"/>
  <rect x="280" y="799" width="12" height="10" stroke="#64748B" stroke-width="2" fill="none"/>
  <path d="M292 809 L280 809 L280 799" stroke="#64748B" stroke-width="2" fill="none"/>
  <circle cx="283" cy="814" r="3" stroke="#64748B" stroke-width="2" fill="none"/>
  <circle cx="292" cy="814" r="3" stroke="#64748B" stroke-width="2" fill="none"/>
  <text x="290" y="834" font-family="PingFang SC, Noto Sans SC, sans-serif" font-size="10" fill="#64748B" text-anchor="middle">调度</text>
  
  <!-- 我的图标 -->
  <circle cx="350" cy="809" r="22" fill="#F1F5F9"/>
  <circle cx="350" cy="804" r="8" stroke="#64748B" stroke-width="2" fill="none"/>
  <path d="M338 824 C338 816 362 816 362 824" stroke="#64748B" stroke-width="2" fill="none"/>
  <text x="350" y="834" font-family="PingFang SC, Noto Sans SC, sans-serif" font-size="10" fill="#64748B" text-anchor="middle">我的</text>
</svg>